<mxfile host="app.diagrams.net" modified="2021-04-24T08:10:31.499Z" agent="5.0 (Windows NT 10.0; Win64; x64) AppleWebKit/537.36 (KHTML, like Gecko) Chrome/90.0.4430.85 Safari/537.36" etag="pDL4lpWrktgxUavj0BpA" version="14.6.5" type="github">
  <diagram id="69vXtx48tE_reD0-cK0p" name="Page-1">
    <mxGraphModel dx="1038" dy="539" grid="1" gridSize="10" guides="1" tooltips="1" connect="1" arrows="1" fold="1" page="1" pageScale="1" pageWidth="827" pageHeight="1169" math="0" shadow="0">
      <root>
        <mxCell id="0" />
        <mxCell id="1" parent="0" />
        <mxCell id="PLfS34GIG5YP79sV-88O-1" value="PROJ" style="shape=cylinder3;whiteSpace=wrap;html=1;boundedLbl=1;backgroundOutline=1;size=15;" vertex="1" parent="1">
          <mxGeometry x="130" y="535" width="60" height="80" as="geometry" />
        </mxCell>
        <mxCell id="PLfS34GIG5YP79sV-88O-2" value="PRPS" style="shape=cylinder3;whiteSpace=wrap;html=1;boundedLbl=1;backgroundOutline=1;size=15;" vertex="1" parent="1">
          <mxGeometry x="360" y="535" width="60" height="80" as="geometry" />
        </mxCell>
        <mxCell id="PLfS34GIG5YP79sV-88O-3" value="" style="edgeStyle=entityRelationEdgeStyle;fontSize=12;html=1;endArrow=ERzeroToMany;startArrow=ERzeroToOne;" edge="1" parent="1" source="PLfS34GIG5YP79sV-88O-1" target="PLfS34GIG5YP79sV-88O-2">
          <mxGeometry width="100" height="100" relative="1" as="geometry">
            <mxPoint x="30" y="670" as="sourcePoint" />
            <mxPoint x="130" y="570" as="targetPoint" />
          </mxGeometry>
        </mxCell>
        <mxCell id="PLfS34GIG5YP79sV-88O-4" value="ZIPSPRS_Project" style="rounded=1;whiteSpace=wrap;html=1;" vertex="1" parent="1">
          <mxGeometry x="100" y="400" width="120" height="60" as="geometry" />
        </mxCell>
        <mxCell id="PLfS34GIG5YP79sV-88O-5" value="ZIPSPRS_WBSElement" style="rounded=1;whiteSpace=wrap;html=1;" vertex="1" parent="1">
          <mxGeometry x="315" y="400" width="150" height="60" as="geometry" />
        </mxCell>
        <mxCell id="PLfS34GIG5YP79sV-88O-6" value="" style="endArrow=none;dashed=1;html=1;dashPattern=1 3;strokeWidth=2;" edge="1" parent="1">
          <mxGeometry width="50" height="50" relative="1" as="geometry">
            <mxPoint x="50" y="500" as="sourcePoint" />
            <mxPoint x="1120" y="500" as="targetPoint" />
          </mxGeometry>
        </mxCell>
        <mxCell id="PLfS34GIG5YP79sV-88O-7" value="SAP Table" style="text;html=1;resizable=0;autosize=1;align=center;verticalAlign=middle;points=[];fillColor=none;strokeColor=none;rounded=0;" vertex="1" parent="1">
          <mxGeometry x="30" y="510" width="70" height="20" as="geometry" />
        </mxCell>
        <mxCell id="PLfS34GIG5YP79sV-88O-8" value="" style="shape=flexArrow;endArrow=classic;html=1;entryX=0.5;entryY=1;entryDx=0;entryDy=0;" edge="1" parent="1" source="PLfS34GIG5YP79sV-88O-1" target="PLfS34GIG5YP79sV-88O-4">
          <mxGeometry width="50" height="50" relative="1" as="geometry">
            <mxPoint x="-60" y="460" as="sourcePoint" />
            <mxPoint x="-10" y="410" as="targetPoint" />
          </mxGeometry>
        </mxCell>
        <mxCell id="PLfS34GIG5YP79sV-88O-9" value="" style="shape=flexArrow;endArrow=classic;html=1;" edge="1" parent="1" source="PLfS34GIG5YP79sV-88O-2" target="PLfS34GIG5YP79sV-88O-5">
          <mxGeometry width="50" height="50" relative="1" as="geometry">
            <mxPoint x="290" y="540" as="sourcePoint" />
            <mxPoint x="340" y="490" as="targetPoint" />
          </mxGeometry>
        </mxCell>
        <mxCell id="PLfS34GIG5YP79sV-88O-10" value="ZIPSPRS_WBSTreeNode" style="rounded=1;whiteSpace=wrap;html=1;" vertex="1" parent="1">
          <mxGeometry x="560" y="400" width="165" height="60" as="geometry" />
        </mxCell>
        <mxCell id="PLfS34GIG5YP79sV-88O-11" value="PRHI" style="shape=cylinder3;whiteSpace=wrap;html=1;boundedLbl=1;backgroundOutline=1;size=15;" vertex="1" parent="1">
          <mxGeometry x="612.5" y="535" width="60" height="80" as="geometry" />
        </mxCell>
        <mxCell id="PLfS34GIG5YP79sV-88O-12" value="" style="edgeStyle=entityRelationEdgeStyle;fontSize=12;html=1;endArrow=ERmandOne;startArrow=ERmandOne;" edge="1" parent="1" source="PLfS34GIG5YP79sV-88O-2" target="PLfS34GIG5YP79sV-88O-11">
          <mxGeometry width="100" height="100" relative="1" as="geometry">
            <mxPoint x="440" y="720" as="sourcePoint" />
            <mxPoint x="540" y="620" as="targetPoint" />
          </mxGeometry>
        </mxCell>
        <mxCell id="PLfS34GIG5YP79sV-88O-13" value="" style="shape=flexArrow;endArrow=classic;html=1;" edge="1" parent="1" source="PLfS34GIG5YP79sV-88O-11" target="PLfS34GIG5YP79sV-88O-10">
          <mxGeometry width="50" height="50" relative="1" as="geometry">
            <mxPoint x="643" y="540" as="sourcePoint" />
            <mxPoint x="540" y="640" as="targetPoint" />
          </mxGeometry>
        </mxCell>
        <mxCell id="PLfS34GIG5YP79sV-88O-14" value="1..n" style="text;html=1;resizable=0;autosize=1;align=center;verticalAlign=middle;points=[];fillColor=none;strokeColor=none;rounded=0;" vertex="1" parent="1">
          <mxGeometry x="210" y="550" width="40" height="20" as="geometry" />
        </mxCell>
        <mxCell id="PLfS34GIG5YP79sV-88O-15" value="1..1" style="text;html=1;resizable=0;autosize=1;align=center;verticalAlign=middle;points=[];fillColor=none;strokeColor=none;rounded=0;" vertex="1" parent="1">
          <mxGeometry x="440" y="550" width="40" height="20" as="geometry" />
        </mxCell>
        <mxCell id="PLfS34GIG5YP79sV-88O-16" value="" style="endArrow=none;dashed=1;html=1;dashPattern=1 3;strokeWidth=2;" edge="1" parent="1">
          <mxGeometry width="50" height="50" relative="1" as="geometry">
            <mxPoint x="49" y="140" as="sourcePoint" />
            <mxPoint x="779" y="140" as="targetPoint" />
          </mxGeometry>
        </mxCell>
        <mxCell id="PLfS34GIG5YP79sV-88O-17" value="ZCPSPRS_WBSTreeNode" style="rounded=1;whiteSpace=wrap;html=1;" vertex="1" parent="1">
          <mxGeometry x="295" y="200" width="190" height="60" as="geometry" />
        </mxCell>
        <mxCell id="PLfS34GIG5YP79sV-88O-18" value="" style="shape=flexArrow;endArrow=classic;html=1;" edge="1" parent="1" source="PLfS34GIG5YP79sV-88O-4" target="PLfS34GIG5YP79sV-88O-17">
          <mxGeometry width="50" height="50" relative="1" as="geometry">
            <mxPoint x="170" y="400" as="sourcePoint" />
            <mxPoint x="220" y="350" as="targetPoint" />
          </mxGeometry>
        </mxCell>
        <mxCell id="PLfS34GIG5YP79sV-88O-19" value="" style="shape=flexArrow;endArrow=classic;html=1;" edge="1" parent="1" source="PLfS34GIG5YP79sV-88O-5" target="PLfS34GIG5YP79sV-88O-17">
          <mxGeometry width="50" height="50" relative="1" as="geometry">
            <mxPoint x="410" y="350" as="sourcePoint" />
            <mxPoint x="460" y="300" as="targetPoint" />
          </mxGeometry>
        </mxCell>
        <mxCell id="PLfS34GIG5YP79sV-88O-20" value="" style="shape=flexArrow;endArrow=classic;html=1;" edge="1" parent="1" source="PLfS34GIG5YP79sV-88O-10" target="PLfS34GIG5YP79sV-88O-17">
          <mxGeometry width="50" height="50" relative="1" as="geometry">
            <mxPoint x="440" y="350" as="sourcePoint" />
            <mxPoint x="490" y="300" as="targetPoint" />
          </mxGeometry>
        </mxCell>
        <mxCell id="PLfS34GIG5YP79sV-88O-21" value="SAP FACT" style="text;html=1;resizable=0;autosize=1;align=center;verticalAlign=middle;points=[];fillColor=none;strokeColor=none;rounded=0;" vertex="1" parent="1">
          <mxGeometry x="30" y="350" width="70" height="20" as="geometry" />
        </mxCell>
        <mxCell id="PLfS34GIG5YP79sV-88O-22" value="ZCCOPSB_WBSElement&lt;br&gt;(&lt;span style=&quot;text-align: left&quot;&gt;Plan,&lt;/span&gt;&lt;span style=&quot;text-align: left&quot;&gt;Actual,&lt;/span&gt;&lt;span style=&quot;text-align: left&quot;&gt;Budget,&lt;/span&gt;&lt;span style=&quot;text-align: left&quot;&gt;Obligo&lt;/span&gt;)" style="rounded=1;whiteSpace=wrap;html=1;" vertex="1" parent="1">
          <mxGeometry x="580" y="200" width="160" height="60" as="geometry" />
        </mxCell>
        <mxCell id="PLfS34GIG5YP79sV-88O-23" value="" style="shape=flexArrow;endArrow=classic;html=1;" edge="1" parent="1" source="PLfS34GIG5YP79sV-88O-22" target="PLfS34GIG5YP79sV-88O-17">
          <mxGeometry width="50" height="50" relative="1" as="geometry">
            <mxPoint x="550" y="260" as="sourcePoint" />
            <mxPoint x="600" y="210" as="targetPoint" />
          </mxGeometry>
        </mxCell>
        <mxCell id="PLfS34GIG5YP79sV-88O-24" value="" style="endArrow=none;dashed=1;html=1;dashPattern=1 3;strokeWidth=2;" edge="1" parent="1">
          <mxGeometry width="50" height="50" relative="1" as="geometry">
            <mxPoint x="60" y="350" as="sourcePoint" />
            <mxPoint x="1130" y="350" as="targetPoint" />
          </mxGeometry>
        </mxCell>
        <mxCell id="PLfS34GIG5YP79sV-88O-25" value="SAP Composite" style="text;html=1;resizable=0;autosize=1;align=center;verticalAlign=middle;points=[];fillColor=none;strokeColor=none;rounded=0;" vertex="1" parent="1">
          <mxGeometry x="30" y="140" width="100" height="20" as="geometry" />
        </mxCell>
        <mxCell id="PLfS34GIG5YP79sV-88O-26" value="ZQPSPRS_WBSTreeNode" style="rounded=1;whiteSpace=wrap;html=1;" vertex="1" parent="1">
          <mxGeometry x="290" y="40" width="200" height="60" as="geometry" />
        </mxCell>
        <mxCell id="PLfS34GIG5YP79sV-88O-27" value="SAP Consumption" style="text;html=1;resizable=0;autosize=1;align=center;verticalAlign=middle;points=[];fillColor=none;strokeColor=none;rounded=0;" vertex="1" parent="1">
          <mxGeometry x="30" y="20" width="110" height="20" as="geometry" />
        </mxCell>
        <mxCell id="PLfS34GIG5YP79sV-88O-28" value="" style="shape=flexArrow;endArrow=classic;html=1;" edge="1" parent="1" source="PLfS34GIG5YP79sV-88O-17" target="PLfS34GIG5YP79sV-88O-26">
          <mxGeometry width="50" height="50" relative="1" as="geometry">
            <mxPoint x="370" y="200" as="sourcePoint" />
            <mxPoint x="420" y="150" as="targetPoint" />
          </mxGeometry>
        </mxCell>
        <mxCell id="PLfS34GIG5YP79sV-88O-29" value="RPSCCO" style="shape=cylinder3;whiteSpace=wrap;html=1;boundedLbl=1;backgroundOutline=1;size=15;" vertex="1" parent="1">
          <mxGeometry x="865" y="535" width="60" height="80" as="geometry" />
        </mxCell>
        <mxCell id="PLfS34GIG5YP79sV-88O-30" value="ZICOPSB_ProjectInfo" style="rounded=1;whiteSpace=wrap;html=1;" vertex="1" parent="1">
          <mxGeometry x="827" y="400" width="136" height="60" as="geometry" />
        </mxCell>
        <mxCell id="PLfS34GIG5YP79sV-88O-31" value="ZCCOPSB_ProjectInfo" style="rounded=1;whiteSpace=wrap;html=1;" vertex="1" parent="1">
          <mxGeometry x="827" y="200" width="136" height="60" as="geometry" />
        </mxCell>
        <mxCell id="PLfS34GIG5YP79sV-88O-33" value="" style="shape=flexArrow;endArrow=classic;html=1;" edge="1" parent="1" source="PLfS34GIG5YP79sV-88O-29" target="PLfS34GIG5YP79sV-88O-30">
          <mxGeometry width="50" height="50" relative="1" as="geometry">
            <mxPoint x="981" y="510" as="sourcePoint" />
            <mxPoint x="1031" y="460" as="targetPoint" />
            <Array as="points">
              <mxPoint x="895" y="500" />
            </Array>
          </mxGeometry>
        </mxCell>
        <mxCell id="PLfS34GIG5YP79sV-88O-34" value="" style="shape=flexArrow;endArrow=classic;html=1;" edge="1" parent="1" source="PLfS34GIG5YP79sV-88O-30" target="PLfS34GIG5YP79sV-88O-31">
          <mxGeometry width="50" height="50" relative="1" as="geometry">
            <mxPoint x="871" y="390" as="sourcePoint" />
            <mxPoint x="921" y="340" as="targetPoint" />
          </mxGeometry>
        </mxCell>
        <mxCell id="PLfS34GIG5YP79sV-88O-35" value="" style="shape=flexArrow;endArrow=classic;html=1;" edge="1" parent="1" source="PLfS34GIG5YP79sV-88O-31" target="PLfS34GIG5YP79sV-88O-22">
          <mxGeometry width="50" height="50" relative="1" as="geometry">
            <mxPoint x="1022" y="340" as="sourcePoint" />
            <mxPoint x="1046" y="260" as="targetPoint" />
          </mxGeometry>
        </mxCell>
        <mxCell id="PLfS34GIG5YP79sV-88O-36" value="Plan&lt;br&gt;Actual&lt;br&gt;Budget&lt;br&gt;Obligo" style="shape=document;whiteSpace=wrap;html=1;boundedLbl=1;align=left;" vertex="1" parent="1">
          <mxGeometry x="600" y="40" width="120" height="80" as="geometry" />
        </mxCell>
        <mxCell id="PLfS34GIG5YP79sV-88O-37" value="" style="endArrow=classic;html=1;" edge="1" parent="1" source="PLfS34GIG5YP79sV-88O-22" target="PLfS34GIG5YP79sV-88O-36">
          <mxGeometry width="50" height="50" relative="1" as="geometry">
            <mxPoint x="1122" y="230" as="sourcePoint" />
            <mxPoint x="1162" y="250" as="targetPoint" />
          </mxGeometry>
        </mxCell>
      </root>
    </mxGraphModel>
  </diagram>
</mxfile>
